Coordinates
version=1
nRows=19
nColumns=33
inDegrees=yes

Units are S.I. units (second, meters, Newtons, ...)
Angles are in degrees.

endheader
time	ground_thorax_rot_x	ground_thorax_rot_y	ground_thorax_rot_z	ground_thorax_tx	ground_thorax_ty	ground_thorax_tz	clav_prot_r	clav_elev_r	scapula_abduction_r	scapula_elevation_r	scapula_upward_rot_r	scapula_winging_r	shoulder_elv_r	plane_of_elev_r	axial_rot_r	elbow_flexion_r	pro_sup_r	wrist_flex_r	wrist_dev_r	clav_prot_l	clav_elev_l	scapula_abduction_l	scapula_elevation_l	scapula_upward_rot_l	scapula_winging_l	shoulder_elv_l	plane_of_elev_l	axial_rot_l	elbow_flexion_l	pro_sup_l	wrist_flex_l	wrist_dev_l
      7.67000000	     -7.82261431	    -41.42871223	     76.14989672	     -1.42477308	    769.50659024	    -34.67940851	     25.36927854	    -45.00000000	     41.26330127	    -45.00000000	    -39.80038489	  -2643.30118007	  -2623.18745685	    141.44138176	   -179.99999979	   1067.62568362	   -290.89963324	     19.83750041	     14.47212876	     -6.30533833	     32.90547681	    -22.38594548	    -45.00000000	    -45.00000000	   -990.48135715	  -1891.20736160	    137.38554906	   -130.60620110	   1789.46338339	     40.54814681	     11.69401435	    -14.36745126
      7.68000000	     -8.11305442	    -41.54400420	     75.78859070	     -3.47787850	    769.83900148	    -34.78187137	     25.39974664	    -45.00000000	     41.25184184	    -45.00000000	    -39.69671766	  -2643.34043911	  -2623.02230899	    141.45185225	   -179.99999979	   1067.51109165	   -290.82988157	     19.82763125	     14.51665960	     -6.36964623	     32.92264620	    -22.43744335	    -45.00000000	    -45.00000000	   -990.28717628	  -1891.10182800	    137.28467775	   -130.58574272	   1789.45397843	     40.62481972	     11.72426677	    -14.41975434
      7.69000000	     -8.98179318	    -41.47423078	     74.57100396	     -5.59886053	    770.20724729	    -34.89104899	     25.16262055	    -45.00000000	     41.43196095	    -45.00000000	    -38.71662774	  -2643.45920639	  -2622.88254337	    141.49491824	   -179.99999979	   1067.42019735	   -290.80942236	     19.76316487	     14.55063370	     -6.04091368	     32.92282214	    -22.65838084	    -45.00000000	    -45.00000000	   -990.58680041	  -1891.15200721	    137.42372383	   -130.37467539	   1789.52899039	     40.70632793	     11.71201569	    -14.45732575
      7.70000000	     -8.04559840	    -41.83669932	     75.81543849	     -7.78611566	    770.60903467	    -35.00413362	     25.69598011	    -45.00000000	     41.60267998	    -45.00000000	    -40.33267579	  -2643.20464400	  -2622.68373287	    141.78546790	   -179.99999979	   1067.53768836	   -291.03674709	     19.85443358	     14.55262620	     -7.09334234	     33.32444181	    -22.26034049	    -45.00000000	    -45.00000000	   -989.58217257	  -1890.96653091	    136.97556020	   -131.19611037	   1789.44998758	     40.87298183	     11.59842738	    -14.47486648
      7.71000000	     -9.38048112	    -41.64535469	     74.05786700	    -10.03210609	    771.04162659	    -35.11830330	     25.28220243	    -45.00000000	     41.53976435	    -45.00000000	    -39.11854480	  -2643.44119391	  -2622.60734460	    141.56354930	   -179.99999979	   1067.25423770	   -291.05668720	     19.75937706	     14.64319298	     -6.36402003	     33.06224478	    -22.70467142	    -45.00000000	    -45.00000000	   -990.10043030	  -1890.98924336	    137.18720018	   -130.33092028	   1789.48269120	     40.94907746	     11.69732899	    -14.53465262
      7.72000000	    -10.27381206	    -41.56296253	     72.83177454	    -12.32692367	    771.50309477	    -35.22923518	     25.10753805	    -45.00000000	     41.64344901	    -45.00000000	    -38.14297295	  -2643.54452522	  -2622.42920060	    141.55658789	   -179.99999979	   1067.16925098	   -291.21521256	     19.73217530	     14.70260885	     -5.97890846	     32.97940523	    -22.94372447	    -45.00000000	    -45.00000000	   -990.35655610	  -1891.00294962	    137.31466375	   -130.04563223	   1789.54474639	     41.04057102	     11.73247962	    -14.58392514
      7.73000000	    -10.84131903	    -41.51621772	     72.03213836	    -14.66757382	    771.99419498	    -35.33381849	     25.03765065	    -45.00000000	     41.72714122	    -45.00000000	    -37.66750136	  -2643.57916270	  -2622.21962277	    141.60073936	   -179.99999979	   1067.14381071	   -291.46999281	     19.73984823	     14.72608151	     -5.88611466	     32.96793834	    -23.07587803	    -45.00000000	    -45.00000000	   -990.35625172	  -1890.98791327	    137.27332719	   -129.78490028	   1789.55355960	     41.12326778	     11.76014201	    -14.63223581
      7.74000000	    -10.30969388	    -41.80743783	     72.79063732	    -17.03960834	    772.51469833	    -35.42962764	     25.57600713	    -45.00000000	     41.97776023	    -45.00000000	    -38.83384530	  -2643.53471572	  -2622.19531326	    141.74162670	   -179.99999979	   1067.06706576	   -292.00475928	     19.80027926	     14.69495192	     -6.79004010	     33.22723908	    -22.78315627	    -45.00000000	    -45.00000000	   -989.52170706	  -1890.73892628	    136.81598969	   -130.30870525	   1789.44874657	     41.20510095	     11.75565888	    -14.66164174
      7.75000000	    -11.44002870	    -41.63373477	     71.26336522	    -19.43680364	    773.06554323	    -35.51730858	     25.11551238	    -45.00000000	     41.97693822	    -45.00000000	    -37.62507733	  -2643.65574484	  -2622.03394665	    141.64003745	   -179.99999979	   1066.91038076	   -292.36813689	     19.77570386	     14.82650169	     -6.09325769	     33.08298767	    -23.14411765	    -45.00000000	    -45.00000000	   -989.98498855	  -1890.79851496	    137.13441831	   -129.80510131	   1789.53169968	     41.21240526	     11.79443949	    -14.69638635
      7.76000000	    -11.48926379	    -41.76866299	     71.16565851	    -21.84791788	    773.64572384	    -35.59782072	     25.45033890	    -45.00000000	     42.18929091	    -45.00000000	    -37.79248223	  -2643.64461837	  -2621.94401640	    141.70840102	   -179.99999979	   1066.85900399	   -292.97370917	     19.82860606	     14.81822626	     -6.64206494	     33.26798728	    -23.05991820	    -45.00000000	    -45.00000000	   -989.48114965	  -1890.68905015	    136.82464812	   -130.03183010	   1789.44392433	     41.22886178	     11.81616594	    -14.73948093
      7.77000000	    -12.59551066	    -41.55130068	     69.68520698	    -24.26204285	    774.25377434	    -35.67375688	     24.98373003	    -45.00000000	     42.14201535	    -45.00000000	    -36.73841188	  -2643.67363827	  -2621.74590825	    141.67527268	   -179.99999979	   1066.78167133	   -293.41009483	     19.86640454	     14.97992370	     -5.92082922	     33.11779761	    -23.40991723	    -45.00000000	    -45.00000000	   -989.93280180	  -1890.73070948	    137.11928994	   -129.50040543	   1789.51239772	     41.20889430	     11.85343877	    -14.76221565
      7.78000000	    -13.72718013	    -41.24753572	     68.20651381	    -26.67871595	    774.89448852	    -35.74661792	     24.60660515	    -45.00000000	     42.04050013	    -45.00000000	    -35.67847385	  -2643.50833633	  -2621.37663033	    141.87982223	   -179.99999979	   1066.79996434	   -293.88599781	     19.95995657	     15.08875699	     -5.49935149	     33.15314470	    -23.83145353	    -45.00000000	    -45.00000000	   -990.10459500	  -1890.82791584	    137.09326328	   -129.28241219	   1789.53957578	     41.19869454	     11.89233606	    -14.81302236
      7.79000000	    -13.15645448	    -41.58745238	     68.89927842	    -29.09543253	    775.57238017	    -35.81790197	     25.40534432	    -45.00000000	     42.52863912	    -45.00000000	    -36.51401876	  -2643.81573003	  -2621.62178389	    141.72065948	   -179.99999979	   1066.73101429	   -294.61768479	     19.96316552	     15.08258813	     -6.49167791	     33.27786787	    -23.42671112	    -45.00000000	    -45.00000000	   -989.35404729	  -1890.57124132	    136.74574988	   -129.62793746	   1789.41146021	     41.16156270	     11.95656099	    -14.86778511
      7.80000000	    -14.20190039	    -41.30265597	     67.52873019	    -31.51914141	    776.29938521	    -35.88834591	     24.88412426	    -45.00000000	     42.44174744	    -45.00000000	    -35.60367067	  -2643.72330550	  -2621.31097179	    141.73718889	   -179.99999979	   1066.62780423	   -295.05396404	     20.03842220	     15.30266670	     -5.85547434	     33.19308119	    -23.80916166	    -45.00000000	    -45.00000000	   -989.71578390	  -1890.59348214	    136.96912565	   -129.17201402	   1789.50032427	     41.09823252	     11.99035492	    -14.90431603
      7.81000000	    -14.63903658	    -41.26590033	     66.94863676	    -33.95194505	    777.08040784	    -35.95987231	     24.98537043	    -45.00000000	     42.53686779	    -45.00000000	    -35.33747757	  -2643.73255508	  -2621.21133419	    141.73424716	   -179.99999979	   1066.57603884	   -295.55230908	     20.09913676	     15.42412214	     -5.98781312	     33.23287483	    -23.89848106	    -45.00000000	    -45.00000000	   -989.50599371	  -1890.51751130	    136.83154205	   -129.18176397	   1789.43531992	     41.04030458	     12.06538085	    -14.94729247
      7.82000000	    -15.19571170	    -41.15155724	     66.18929887	    -36.39533790	    777.92273445	    -36.03419176	     24.92405736	    -45.00000000	     42.60111116	    -45.00000000	    -34.94965172	  -2643.70949666	  -2621.09240717	    141.76597116	   -179.99999979	   1066.59809844	   -296.01518397	     20.17364218	     15.54731527	     -5.94907457	     33.27473559	    -24.04688349	    -45.00000000	    -45.00000000	   -989.44296009	  -1890.49029102	    136.79719410	   -129.11716594	   1789.42286402	     40.96246448	     12.10574715	    -14.97726110
      7.83000000	    -16.08214388	    -40.89441419	     65.04231722	    -38.84656802	    778.82716706	    -36.11448548	     24.50441712	    -45.00000000	     42.38377256	    -45.00000000	    -34.33548800	  -2643.44805327	  -2620.79206930	    141.94103850	   -179.99999979	   1066.68426341	   -296.40775585	     20.33389039	     15.73409705	     -5.42556263	     33.28127756	    -24.36377706	    -45.00000000	    -45.00000000	   -989.64152736	  -1890.51552921	    136.92736117	   -128.93943534	   1789.44575548	     40.89281466	     12.12948281	    -14.98778918
      7.84000000	    -16.26225420	    -40.91603239	     64.73075538	    -41.30815679	    779.79546066	    -36.20393069	     24.92019280	    -45.00000000	     42.75524132	    -45.00000000	    -34.20715469	  -2643.71561347	  -2620.92614196	    141.81433623	   -179.99999979	   1066.66087000	   -296.85331522	     20.30579806	     15.76921956	     -5.96573077	     33.34437584	    -24.30428917	    -45.00000000	    -45.00000000	   -989.26567826	  -1890.38375188	    136.66220497	   -128.97991473	   1789.38308328	     40.80531793	     12.20510806	    -15.04323438
      7.85000000	    -17.06697348	    -40.66875201	     63.63704016	    -43.76815046	    780.82247104	    -36.30592304	     24.40059375	    -45.00000000	     42.55121726	    -45.00000000	    -33.59389336	  -2643.41060733	  -2620.57563202	    141.97292942	   -179.99999979	   1066.73045063	   -297.19494005	     20.47666478	     15.98589645	     -5.35359908	     33.32253620	    -24.58831581	    -45.00000000	    -45.00000000	   -989.52887587	  -1890.42503525	    136.87964602	   -128.76842715	   1789.40454710	     40.75312538	     12.22615834	    -15.04820729
